# AST/ASF file generated using VICON BodyLanguage
# -----------------------------------------------
:version 1.10
:name VICON
:units
  mass 1.0
  length 0.45
  angle deg
:documentation
   .ast/.asf automatically generated from VICON data using
   VICON BodyBuilder and BodyLanguage model FoxedUp or BRILLIANT.MOD
:root
   order TX TY TZ RX RY RZ
   axis XYZ
   position 0 0 0  
   orientation 0 0 0 
:bonedata
  begin
     id 1 
     name lhipjoint
     direction 0.722297 -0.617336 0.311742 
     length 2.6635 
     axis 0 0 0  XYZ
  end
  begin
     id 2 
     name lfemur
     direction 0.34202 -0.939693 0  
     length 7.39349  
     axis 0 0 20  XYZ
    dof rx ry rz
    limits (-160.0 20.0)
           (-70.0 70.0)
           (-60.0 70.0)
  end
  begin
     id 3 
     name ltibia
     direction 0.34202 -0.939693 0   
     length 7.36294   
     axis 0 0 20   XYZ
    dof rx
    limits (-10.0 170.0)
  end
  begin
     id 4 
     name lfoot
     direction 0.104879 -0.288152 0.951824   
     length 2.16981   
     axis -90 7.62852e-016 20   XYZ
    dof rx rz
    limits (-45.0 90.0)
           (-70.0 20.0)
  end
  begin
     id 5 
     name ltoes
     direction 1.53586e-011 -4.21895e-011 1   
     length 1.08218   
     axis -90 7.62852e-016 20   XYZ
    dof rx
    limits (-90.0 20.0)
  end
  begin
     id 6 
     name rhipjoint
     direction -0.75102 -0.589393 0.297631   
     length 2.78977  
     axis 0 0 0  XYZ 
  end
  begin
     id 7 
     name rfemur
     direction -0.34202 -0.939693 0   
     length 7.46076   
     axis 0 0 -20   XYZ
    dof rx ry rz
    limits (-160.0 20.0)
           (-70.0 70.0)
           (-70.0 60.0)
  end
  begin
     id 8 
     name rtibia
     direction -0.34202 -0.939693 0   
     length 7.31726   
     axis 0 0 -20   XYZ
    dof rx
    limits (-10.0 170.0)
 end
 begin
     id 9 
     name rfoot
     direction -0.107991 -0.296704 0.948844   
     length 2.09388  
     axis -90 -7.62852e-016 -20   XYZ
    dof rx rz
    limits (-45.0 90.0)
           (-20.0 70.0)
  end
  begin
     id 10 
     name rtoes
     direction -1.53559e-011 -4.21911e-011 1   
     length 1.04433   
     axis -90 -7.62852e-016 -20   XYZ
    dof rx
    limits (-90.0 20.0)
  end
  begin
     id 11 
     name lowerback
     direction 0.0165164 0.98272 0.184358   
     length 1.71896   
     axis 0 0 0   XYZ
    dof rx ry rz
    limits (-20.0 45.0)
           (-30.0 30.0)
           (-30.0 30.0)
  end
  begin
     id 12 
     name upperback
     direction -0.00887249 0.992297 0.123566   
     length 1.71504   
     axis 0 0 0   XYZ
    dof rx ry rz
    limits (-20.0 45.0)
           (-30.0 30.0)
           (-30.0 30.0)
  end
  begin
     id 13 
     name thorax
     direction -0.0157026 0.998908 0.0440032   
     length 1.77022   
     axis 0 0 0   XYZ
    dof rx ry rz
    limits (-20.0 45.0)
           (-30.0 30.0)
           (-30.0 30.0)
  end
  begin
     id 14 
     name lowerneck
     direction -0.0238856 0.998137 0.0561411   
     length 1.89341   
     axis 0 0 0   XYZ
    dof rx ry rz
    limits (-20.0 45.0)
           (-30.0 30.0)
           (-30.0 30.0)
  end
  begin
     id 15 
     name upperneck
     direction 0.0276574 0.952253 -0.304056   
     length 1.86999   
     axis 0 0 0   XYZ
    dof rx ry rz
    limits (-20.0 45.0)
           (-30.0 30.0)
           (-30.0 30.0)
  end
  begin
     id 16
     name head
     direction 0.00800083 0.994258 -0.106712  
     length 1.91492  
     axis 0 0 0   XYZ
    dof rx ry rz
    limits (-20.0 45.0)
           (-30.0 30.0)
           (-30.0 30.0)
  end
  begin
     id 17 
     name lclavicle
     direction 0.97203 0.225407 0.06595  
     length 3.34889  
     axis 0 0 0   XYZ
    dof ry rz
    limits (-20.0 10.0)
           (0.0 20.0)
  end
  begin
     id 18 
     name lhumerus
     direction 1 -4.48973e-011 2.20267e-027   
     length 4.85645   
     axis 180 -30 -90   XYZ
    dof rx ry rz
    limits (-60.0 90.0)
           (-90.0 90.0)
           (-90.0 90.0)
  end
  begin
     id 19
     name lradius
     direction 1 -4.4897e-011 4.60472e-027   
     length 2.79874   
     axis 180 -30 -90   XYZ
    dof rx
    limits (-10.0 170.0)
  end
  begin
     id 20
     name lwrist
     direction 1 -4.48952e-011 1.14928e-026   
     length 1.39937   
     axis -6.29373e-015 90 90   XYZ
    dof ry
    limits (-180.0 0.0)
 end
  begin
     id 21 
     name lhand
     direction 1 -4.48967e-011 2.29886e-026   
     length 0.573398   
     axis -1.46689e-014 90 90   XYZ
    dof rx rz
    limits (-90.0 90.0)
           (-45.0 45.0)
  end
  begin
     id 22 
     name lfingers
     direction 1 -4.48955e-011 4.59726e-026   
     length 0.462289   
     axis -2.93383e-014 90 90   XYZ
    dof rx
    limits (0.0 90.0)
  end
  begin
     id 23
     name lthumb
     direction 0.707107 -6.34866e-011 0.707107   
     length 0.663757   
     axis -90 45 5.69224e-014   XYZ
    dof rx rz
    limits (-45.0 45.0)
           (-45.0 45.0)
  end
  begin
     id 24 
     name rclavicle
     direction -0.981571 0.157346 0.108443   
     length 3.35257  
     axis 0 0 0   XYZ 
    dof ry rz
    limits (-10.0 20.0)
           (-20.0 0.0)
  end
  begin
     id 25 
     name rhumerus
     direction -1 -4.48967e-011 8.58308e-029  
     length 4.67018   
     axis 180 30 90   XYZ
    dof rx ry rz
    limits (-90.0 60.0)
           (-90.0 90.0)
           (-90.0 90.0)
  end
  begin
     id 26 
     name rradius
     direction -1 -4.48958e-011 4.52548e-027   
     length 2.65534   
     axis 180 30 90   XYZ
    dof rx
    limits (-10.0 170.0)
  end
  begin
     id 27 
     name rwrist
     direction -1 -4.48977e-011 1.14952e-026   
     length 1.32767   
     axis -6.29373e-015 -90 -90   XYZ
    dof ry
    limits (-180.0 0.0)
  end
  begin
     id 28
     name rhand
     direction -1 -4.48924e-011 2.29804e-026   
     length 0.594069   
     axis -1.46689e-014 -90 -90   XYZ
    dof rx rz
    limits (-90.0 90.0)
           (-45.0 45.0)
  end
  begin
     id 29
     name rfingers
     direction -1 -4.48998e-011 4.59888e-026   
     length 0.478954   
     axis -2.93383e-014 -90 -90   XYZ
    dof rx
    limits (0.0 90.0)
  end
  begin
     id 30
     name rthumb
     direction -0.707107 -6.34933e-011 0.707107   
     length 0.687685   
     axis -90 -45 -5.69224e-014   XYZ
    dof rx rz
    limits (-45.0 45.0)
           (-45.0 45.0)
  end
:hierarchy
  begin
    root lhipjoint rhipjoint lowerback
    lhipjoint lfemur
    lfemur ltibia
    ltibia lfoot
    lfoot ltoes
    rhipjoint rfemur
    rfemur rtibia
    rtibia rfoot
    rfoot rtoes
    lowerback upperback
    upperback thorax
    thorax lowerneck lclavicle rclavicle
    lowerneck upperneck
    upperneck head
    lclavicle lhumerus
    lhumerus lradius
    lradius lwrist
    lwrist lhand lthumb
    lhand lfingers
    rclavicle rhumerus
    rhumerus rradius
    rradius rwrist
    rwrist rhand rthumb
    rhand rfingers
  end

#!OML:ASF E:\pregnant2\Project 1\Capture day 1\Session 1\pregnant2.ASF
:FULLY-SPECIFIED
:DEGREES
1618
root 9.28608 11.3275 18.9296 48.53 -4.52167 2.91818
lowerback -34.4569 -1.15914 -4.40051
upperback -10.8916 -0.0514696 0.273696
thorax 5.45668 0.0433027 2.59371
lowerneck -11.9631 -0.754332 -3.165
upperneck 45.4781 0.454513 -1.39656
head 19.6746 -0.569276 -0.0320188
rclavicle -1.60519e-014 -7.95139e-016
rhumerus -49.2816 40.054 -70.0127
rradius 104.127
rwrist 17.6399
rhand -5.86103 -15.7979
rfingers 7.12502
rthumb 19.9659 -44.7922
lclavicle -1.60519e-014 -7.95139e-016
lhumerus -54.6681 -35.666 78.5801
lradius 100.733
lwrist -13.2988
lhand -7.78782 28.7726
lfingers 7.12502
lthumb 18.113 57.9492
rfemur -129.991 -1.99243 22.3714
rtibia 87.5463
rfoot -3.42344 0.835034
rtoes 2.28134
lfemur -128.716 -2.22037 -29.6579
ltibia 88.952
lfoot -8.33872 2.60427
ltoes -10.5257
1619
root 9.28713 11.3379 18.9491 48.9003 -4.54656 2.90956
lowerback -34.0286 -1.13537 -4.38471
upperback -10.889 -0.0444901 0.229463
thorax 5.30482 0.0482597 2.5442
lowerneck -12.1191 -0.73199 -3.09106
upperneck 45.2678 0.494809 -1.4501
head 19.5756 -0.545069 -0.0620757
rclavicle -3.97569e-015 1.55052e-014
rhumerus -49.885 40.7413 -70.2247
rradius 104.451
rwrist 17.1516
rhand -6.79298 -16.2271
rfingers 7.12502
rthumb 19.0699 -45.3122
lclavicle -3.97569e-015 1.55052e-014
lhumerus -55.2763 -36.4052 78.74
lradius 101.096
lwrist -12.4246
lhand -8.82433 29.2127
lfingers 7.12502
lthumb 17.1155 58.4788
rfemur -130.238 -1.97778 22.3797
rtibia 87.4779
rfoot -3.5336 0.838096
rtoes 2.32691
lfemur -128.866 -2.20044 -29.601
ltibia 88.8203
lfoot -8.59465 2.53993
ltoes -10.4266
1620
root 9.28837 11.3481 18.9693 49.2658 -4.57215 2.89978
lowerback -33.5824 -1.10601 -4.36602
upperback -10.8815 -0.0317636 0.182028
thorax 5.1497 0.0559145 2.49187
lowerneck -12.2881 -0.711248 -3.0204
upperneck 45.0554 0.53258 -1.5004
head 19.4801 -0.522047 -0.0902337
rclavicle -1.78906e-015 -4.77083e-015
rhumerus -50.52 41.4446 -70.4505
rradius 104.785
rwrist 16.5553
rhand -7.72939 -16.7039
rfingers 7.12502
rthumb 18.1692 -45.8753
lclavicle -1.78906e-015 -4.77083e-015
lhumerus -55.8906 -37.1689 78.9127
lradius 101.453
lwrist -11.5493
lhand -9.87992 29.6557
lfingers 7.12502
lthumb 16.0993 59.007
rfemur -130.479 -1.96262 22.3932
rtibia 87.4146
rfoot -3.654 0.841498
rtoes 2.36458
lfemur -129.005 -2.17585 -29.5251
ltibia 88.6802
lfoot -8.82742 2.47357
ltoes -10.3353
1621
root 9.28977 11.358 18.9902 49.6258 -4.59643 2.89074
lowerback -33.1237 -1.06877 -4.3469
upperback -10.8716 -0.0088352 0.126851
thorax 4.99 0.0685169 2.43463
lowerneck -12.4489 -0.700427 -2.95566
upperneck 44.8388 0.551394 -1.54071
head 19.3804 -0.506046 -0.115708
rclavicle 2.88238e-015 4.17448e-015
rhumerus -51.2056 42.1633 -70.7038
rradius 105.113
rwrist 15.8873
rhand -8.72756 -17.2192
rfingers 7.12502
rthumb 17.2087 -46.4772
lclavicle 2.88238e-015 4.17448e-015
lhumerus -56.5116 -37.9734 79.1069
lradius 101.796
lwrist -10.6855
lhand -10.9578 30.0991
lfingers 7.12502
lthumb 15.0612 59.5312
rfemur -130.711 -1.95007 22.4117
rtibia 87.2438
rfoot -3.67461 0.8528
rtoes 2.37708
lfemur -129.134 -2.15243 -29.433
ltibia 88.4284
lfoot -8.92731 2.37823
ltoes -10.2531
1622
root 9.29135 11.3688 19.0125 49.9858 -4.63062 2.88548
lowerback -32.296 -1.00086 -4.30183
upperback -11.2231 0.0119126 -0.0435117
thorax 4.82904 0.0771609 2.44122
lowerneck -12.6131 -0.69131 -2.90253
upperneck 44.618 0.566296 -1.5695
head 19.2801 -0.492032 -0.133961
rclavicle -1.01877e-014 -3.37934e-015
rhumerus -51.9534 42.8983 -70.9997
rradius 105.446
rwrist 15.1761
rhand -9.80239 -17.7565
rfingers 7.12502
rthumb 16.1739 -47.1018
lclavicle -1.01877e-014 -3.37934e-015
lhumerus -57.1496 -38.8079 79.3206
lradius 102.128
lwrist -9.83652
lhand -12.0505 30.5422
lfingers 7.12502
lthumb 14.0084 60.0501
rfemur -130.934 -1.93745 22.4245
rtibia 87.0679
rfoot -3.7034 0.866023
rtoes 2.36735
lfemur -129.252 -2.12699 -29.3341
ltibia 88.1675
lfoot -9.0156 2.29616
ltoes -10.2135
1623
root 9.29754 11.4559 18.981 50.3528 -4.6743 2.88336
lowerback -31.8718 -0.955087 -4.28875
upperback -11.1841 0.0517973 -0.108889
thorax 4.68351 0.0979214 2.37248
lowerneck -12.784 -0.683921 -2.8566
upperneck 44.3927 0.578537 -1.5926
head 19.1797 -0.479514 -0.148483
rclavicle -6.01324e-015 5.76476e-015
rhumerus -52.763 43.6564 -71.3396
rradius 105.78
rwrist 14.4268
rhand -10.9692 -18.2972
rfingers 7.12502
rthumb 15.0502 -47.7302
lclavicle -6.01324e-015 5.76476e-015
lhumerus -57.8168 -39.6617 79.5637
lradius 102.449
lwrist -9.01726
lhand -13.1707 30.9717
lfingers 7.12502
lthumb 12.9286 60.5512
rfemur -130.655 -1.92833 22.4343
rtibia 86.3951
rfoot -3.74656 0.887241
rtoes 2.33865
lfemur -128.873 -2.098 -29.2329
ltibia 87.396
lfoot -9.08641 2.22591
ltoes -10.2126
1624
root 9.29928 11.4704 19.0048 50.7299 -4.72306 2.87832
lowerback -31.4632 -0.906898 -4.27449
upperback -11.1411 0.0954537 -0.176071
thorax 4.54828 0.120217 2.30237
lowerneck -12.9598 -0.678202 -2.82134
upperneck 44.1634 0.588061 -1.60753
head 19.0793 -0.468811 -0.15751
rclavicle -1.58034e-014 8.15017e-015
rhumerus -53.626 44.4493 -71.7205
rradius 106.113
rwrist 13.6402
rhand -12.228 -18.8311
rfingers 7.12502
rthumb 13.8373 -48.3508
lclavicle -1.58034e-014 8.15017e-015
lhumerus -58.5149 -40.5186 79.8344
lradius 102.758
lwrist -8.24394
lhand -14.2878 31.3997
lfingers 7.12502
lthumb 11.8516 61.0443
rfemur -130.86 -1.90959 22.4384
rtibia 86.1899
rfoot -3.78165 0.901834
rtoes 2.30061
lfemur -128.973 -2.06931 -29.1195
ltibia 87.1087
lfoot -9.15552 2.18897
ltoes -10.1986
1625
root 9.30083 11.4852 19.0295 51.1131 -4.77331 2.86734
lowerback -31.0543 -0.857283 -4.25936
upperback -11.0968 0.140592 -0.241321
thorax 4.41338 0.143275 2.2343
lowerneck -13.1469 -0.673226 -2.79347
upperneck 43.9357 0.598104 -1.61969
head 18.9842 -0.458892 -0.163799
rclavicle -7.55382e-015 -1.19271e-014
rhumerus -54.5408 45.2779 -72.1414
rradius 106.436
rwrist 12.8422
rhand -13.5704 -19.3461
rfingers 7.12502
rthumb 12.5433 -48.9496
lclavicle -7.55382e-015 -1.19271e-014
lhumerus -59.2507 -41.3654 80.1379
lradius 103.057
lwrist -7.52187
lhand -15.3883 31.8292
lfingers 7.12502
lthumb 10.7902 61.5321
rfemur -131.064 -1.88359 22.4452
rtibia 85.9779
rfoot -3.81281 0.912789
rtoes 2.26532
lfemur -129.077 -2.0382 -29.0006
ltibia 86.8209
lfoot -9.21241 2.18142
ltoes -10.2078
1626
root 9.30205 11.4997 19.0544 51.5007 -4.81623 2.84391
lowerback -30.628 -0.807243 -4.23669
upperback -11.054 0.182761 -0.300182
thorax 4.26819 0.165115 2.1678
lowerneck -13.3504 -0.668053 -2.77073
upperneck 43.7116 0.610255 -1.63065
head 18.897 -0.449039 -0.168298
rclavicle 4.87022e-015 1.03368e-014
rhumerus -55.495 46.1495 -72.598
rradius 106.736
rwrist 12.054
rhand -14.9674 -19.8569
rfingers 7.12502
rthumb 11.1962 -49.5382
lclavicle 4.87022e-015 1.03368e-014
lhumerus -60.0171 -42.1912 80.4668
lradius 103.344
lwrist -6.8467
lhand -16.4642 32.2556
lfingers 7.12502
lthumb 9.75227 62.0098
rfemur -131.275 -1.8474 22.4639
rtibia 85.8785
rfoot -3.94618 0.910087
rtoes 2.24059
lfemur -129.198 -2.00624 -28.8773
ltibia 86.6522
lfoot -9.3487 2.2389
ltoes -10.2304
